<svg xmlns="http://www.w3.org/2000/svg" style="clip-rule: evenodd; fill-rule: evenodd; shape-rendering: geometricPrecision; text-rendering: geometricPrecision; image-rendering: optimizeQuality;" viewBox="0 0 286.771 204.853" width="286.771mm" height="204.853mm" xmlns:xml="http://www.w3.org/XML/1998/namespace" xml:space="preserve">
 <defs>
  <style type="text/css">
   <![CDATA[
    .fil1 {fill:black}
    .fil0 {fill:black}
    .fil2 {fill:white;fill-rule:nonzero}
   ]]>
  </style>
 </defs>
 <g id="Layer_x0020_1">
  <metadata id="CorelCorpID_0Corel-Layer" />
  <path class="fil0" d="M 5.7448 181.399 l -0.4092 0.0129 c 0.2288 10.9103 9.1285 19.6296 20.042 19.6296 l 236.425 0 c 10.7428 -0.2256 19.3911 -8.8868 19.6199 -19.6296 l 0.0129 -157.549 c 0 -10.9007 -8.7321 -19.8133 -19.6328 -20.042 l -236.425 -0.0097 c -11.0714 0 -20.042 8.9899 -20.042 20.0517 l 0 157.536 l 0.4092 0 Z" />
  <path class="fil1" d="M 15.9656 181.399 l -0.3995 0 c -0.0097 0.1386 -0.0097 0.2739 -0.0097 0.4092 c 0 5.1942 4.0342 9.4121 9.0028 9.4121 c 0.2739 0 0.5445 -0.0097 0.8184 -0.0323 l 0 0.0323 l 236.415 0 l 0 -0.0097 c 0.1354 0.0097 0.2707 0.0097 0.4093 0.0097 c 4.9653 0 9.0027 -4.2179 9.0027 -9.4121 c 0 -0.1353 0 -0.2706 -0.0128 -0.4092 l 0.4221 0 l 0 -157.536 l -0.4447 0 c 0.0226 -0.2739 0.0354 -0.5478 0.0354 -0.8185 c 0 -5.1941 -4.0374 -9.412 -9.0027 -9.412 c -0.1386 0 -0.2739 0.0097 -0.4093 0.0097 l 0 -0.0097 l -236.415 0 l 0 0.0451 c -0.2739 -0.0225 -0.5445 -0.0451 -0.8184 -0.0451 c -4.9686 0 -9.0028 4.2179 -9.0028 9.412 c 0 0.2707 0.0097 0.5446 0.0322 0.8185 l -0.0322 0 l 0 157.536 l 0.4092 0 Z" />
  <path class="fil2" d="M 178.034 79.9533 c 0.1964 1.2275 0.3191 2.4794 0.4173 3.7314 c 0.0982 1.252 0.1473 2.4549 0.1473 3.6578 c 0 5.1306 -0.8592 10.0649 -2.5776 14.7537 l -0.5892 0.8592 l -0.2946 0.8592 l -0.8592 2.3075 l -0.5646 0.5646 l -2.6021 4.9098 l -0.8592 0.5646 l -0.2701 0.8592 l -0.5891 0.8592 l -0.5646 0.5891 l -0.5892 0.8592 l -2.5776 2.3076 c -0.1964 0.3191 -0.3928 0.5155 -0.5892 0.5646 l -0.27 0.5892 c -2.013 2.4303 -3.8541 4.2714 -5.4743 5.4498 l -0.5647 0.8837 l -0.8837 0.5646 c -0.1719 0.3437 -0.3682 0.5156 -0.5646 0.5647 l -3.1668 3.4613 l -0.8592 0.2946 c -0.9574 1.2029 -1.9148 2.0621 -2.8722 2.5776 c -0.6873 0.8101 -1.3502 1.3993 -2.013 1.7429 c -0.8592 1.0065 -1.7429 1.6693 -2.6021 2.013 l -0.5646 0.8592 l -0.8592 0.2701 c -0.2455 0.3436 -0.5401 0.54 -0.8592 0.5891 l -0.5892 0.8592 l -2.5776 1.4484 c -0.9574 0.8101 -1.8657 1.5466 -2.6758 2.1848 c -0.8101 0.6383 -1.5466 1.1538 -2.2339 1.5466 l 43.1564 0 l 0 16.9631 l -73.0566 0 l 0 -16.9631 l 1.1538 -0.8838 l 6.0389 -3.1422 l 0.8592 -0.8837 l 1.1538 -0.5647 c 0.9083 -0.761 1.8657 -1.3501 2.8722 -1.7184 l 0.8592 -0.8837 l 1.7184 -1.1292 l 0.5892 -0.5892 l 0.5646 -0.2946 c 0.491 -0.3191 0.9083 -0.6382 1.3011 -0.9328 c 0.3927 -0.2701 0.7119 -0.5401 1.0065 -0.7856 l 0.8592 -0.2946 c 0.2454 -0.3191 0.54 -0.5155 0.8592 -0.5646 l 0.5891 -0.8592 l 2.013 -1.1538 l 0.27 -0.5646 l 0.5892 -0.2946 l 3.7314 -2.8722 l 0.8592 -0.8837 l 1.7429 -1.1292 c 0.1719 -0.3437 0.3683 -0.5401 0.5647 -0.5892 c 0.1963 -0.1964 0.3682 -0.2946 0.5155 -0.2946 l 0.0736 0 l 0.5646 -0.8592 c 1.4484 -1.1047 2.5776 -2.1603 3.4614 -3.1668 c 12.4952 -9.1566 18.7551 -20.0807 18.7551 -32.7723 c 0 -3.6087 -0.5155 -7.34 -1.522 -11.2433 l -2.013 -2.8722 c -4.3942 -3.5349 -8.8866 -5.3024 -13.4281 -5.3024 c -2.8476 0 -5.7443 0.7119 -8.7147 2.1357 c -6.6036 3.1667 -9.9176 8.7147 -9.9176 16.6194 c 0 1.6447 0.1473 3.3877 0.4418 5.2534 l -18.4114 0 c -0.0491 -0.5646 -0.0736 -1.1293 -0.0736 -1.6448 l 0 -1.7429 c 0 -22.3392 11.145 -34.8345 33.4351 -37.4612 l 1.8657 0 c 21.9219 0 34.3435 10.0649 37.2648 30.2193 Z" />
 </g>
</svg>